<?xml version="1.0" encoding="UTF-8" standalone="no"?>
<!-- Created with Inkscape (http://www.inkscape.org/) -->

<svg
   xmlns:dc="http://purl.org/dc/elements/1.1/"
   xmlns:cc="http://creativecommons.org/ns#"
   xmlns:rdf="http://www.w3.org/1999/02/22-rdf-syntax-ns#"
   xmlns:svg="http://www.w3.org/2000/svg"
   xmlns="http://www.w3.org/2000/svg"
   xmlns:sodipodi="http://sodipodi.sourceforge.net/DTD/sodipodi-0.dtd"
   xmlns:inkscape="http://www.inkscape.org/namespaces/inkscape"
   width="426"
   height="327"
   id="svg2"
   sodipodi:version="0.32"
   inkscape:version="0.92.2 (5c3e80d, 2017-08-06)"
   version="1.0"
   inkscape:output_extension="org.inkscape.output.svg.inkscape"
   sodipodi:docname="MTV_Logo.svg">
  <metadata
     id="metadata82">
    <rdf:RDF>
      <cc:Work
         rdf:about="">
        <dc:format>image/svg+xml</dc:format>
        <dc:type
           rdf:resource="http://purl.org/dc/dcmitype/StillImage" />
      </cc:Work>
    </rdf:RDF>
  </metadata>
  <defs
     id="defs80" />
  <sodipodi:namedview
     pagecolor="#ffffff"
     bordercolor="#666666"
     borderopacity="1"
     objecttolerance="10"
     gridtolerance="10"
     guidetolerance="10"
     inkscape:pageopacity="0"
     inkscape:pageshadow="2"
     inkscape:window-width="1920"
     inkscape:window-height="1028"
     id="namedview78"
     showgrid="false"
     inkscape:zoom="1.0206557"
     inkscape:cx="353.90537"
     inkscape:cy="67.829884"
     inkscape:window-x="-8"
     inkscape:window-y="-8"
     inkscape:window-maximized="1"
     inkscape:current-layer="layer1" />
  <g
     inkscape:label="Layer 1"
     inkscape:groupmode="layer"
     id="layer1"
     transform="translate(-12.59423,-46.636963)">
    <g
       id="g19319"
       transform="matrix(13.05826,0,0,-13.05826,148.81408,220.3562)"
       clip-path="none">
      <path
         id="path19321"
         d="m 0,0 v -8.693 l 1.466,1.105 v 6.107 z"
         style="fill:#e9e9e9;fill-rule:nonzero;stroke:none"
         inkscape:connector-curvature="0" />
    </g>
    <g
       id="g19323"
       transform="matrix(13.05826,0,0,-13.05826,189.94237,246.86316)"
       clip-path="none">
      <path
         id="path19325"
         d="M 0,0 1.909,0.436 2.68,1.068 v 1.146 z"
         style="fill:#e9e9e9;fill-rule:nonzero;stroke:none"
         inkscape:connector-curvature="0" />
    </g>
    <g
       id="g19327"
       transform="matrix(13.05826,0,0,-13.05826,186.81231,66.34055)"
       clip-path="none">
      <path
         id="path19329"
         d="m 0,0 -2.697,1.243 2.438,-2.732 0.923,0.911 z"
         style="fill:#e9e9e9;fill-rule:nonzero;stroke:none"
         inkscape:connector-curvature="0" />
    </g>
    <g
       id="g19331"
       transform="matrix(13.05826,0,0,-13.05826,12.59423,342.22763)"
       clip-path="none">
      <path
         id="path19333"
         d="M 0,0 H 0.847 L 1.123,-1.382 H 1.128 L 1.404,0 H 2.251 V -2.35 H 1.688 v 1.508 H 1.682 L 1.347,-2.35 H 0.904 L 0.568,-0.842 H 0.563 V -2.35 H 0 Z"
         style="fill:#e9e9e9;fill-rule:nonzero;stroke:none"
         inkscape:connector-curvature="0" />
    </g>
    <g
       transform="matrix(13.05826,0,0,-13.05826,67.71837,361.04197)"
       id="g19337">
      <path
         style="fill:#e9e9e9;fill-rule:nonzero;stroke:none"
         d="m 0,0 c 0,-0.652 -0.29,-0.964 -0.879,-0.964 -0.589,0 -0.882,0.312 -0.882,0.964 v 1.441 h 0.595 V 0.16 c 0,-0.24 0,-0.539 0.289,-0.539 0.283,0 0.283,0.299 0.283,0.539 V 1.441 H 0 Z"
         id="path19339"
         inkscape:connector-curvature="0" />
    </g>
    <g
       transform="matrix(13.05826,0,0,-13.05826,77.74058,362.58938)"
       id="g19341">
      <path
         style="fill:#e9e9e9;fill-rule:nonzero;stroke:none"
         d="m 0,0 c 0,-0.059 0.008,-0.112 0.022,-0.155 0.043,-0.141 0.173,-0.171 0.284,-0.171 0.097,0 0.246,0.039 0.246,0.214 0,0.121 -0.083,0.154 -0.417,0.269 -0.305,0.106 -0.655,0.208 -0.655,0.682 0,0.542 0.383,0.776 0.78,0.776 0.419,0 0.79,-0.194 0.806,-0.767 H 0.504 C 0.514,0.937 0.482,0.996 0.433,1.037 0.384,1.078 0.316,1.095 0.257,1.095 0.176,1.095 0.043,1.069 0.043,0.937 0.054,0.77 0.33,0.734 0.603,0.641 0.877,0.549 1.147,0.394 1.147,-0.036 c 0,-0.613 -0.462,-0.81 -0.892,-0.81 -0.22,0 -0.845,0.096 -0.85,0.846 z"
         id="path19343"
         inkscape:connector-curvature="0" />
    </g>
    <path
       style="fill:#e9e9e9;fill-rule:nonzero;stroke:none"
       d="m 95.21515,342.23286 h 7.76966 v 30.68691 h -7.76966 z"
       id="path19345"
       inkscape:connector-curvature="0" />
    <g
       transform="matrix(13.05826,0,0,-13.05826,122.62313,353.65753)"
       id="g19347">
      <path
         style="fill:#e9e9e9;fill-rule:nonzero;stroke:none"
         d="m 0,0 c -0.011,0.086 -0.065,0.346 -0.312,0.346 -0.278,0 -0.367,-0.33 -0.367,-0.646 0,-0.315 0.089,-0.645 0.367,-0.645 0.201,0 0.28,0.172 0.315,0.392 h 0.584 c 0,-0.474 -0.316,-0.977 -0.882,-0.977 -0.625,0 -0.98,0.536 -0.98,1.23 0,0.74 0.385,1.231 0.98,1.231 C 0.236,0.928 0.527,0.589 0.579,0 Z"
         id="path19349"
         inkscape:connector-curvature="0" />
    </g>
    <g
       transform="matrix(13.05826,0,0,-13.05826,150.43983,350.0874)"
       id="g19351">
      <path
         style="fill:#e9e9e9;fill-rule:nonzero;stroke:none"
         d="M 0,0 H -0.541 V 0.602 H 1.136 V 0 H 0.595 V -1.748 H 0 Z"
         id="path19353"
         inkscape:connector-curvature="0" />
    </g>
    <g
       transform="matrix(13.05826,0,0,-13.05826,167.53179,342.22763)"
       id="g19355">
      <path
         style="fill:#e9e9e9;fill-rule:nonzero;stroke:none"
         d="M 0,0 H 1.598 V -0.602 H 0.595 V -0.896 H 1.506 V -1.454 H 0.595 V -1.748 H 1.629 V -2.35 H 0 Z"
         id="path19357"
         inkscape:connector-curvature="0" />
    </g>
    <g
       transform="matrix(13.05826,0,0,-13.05826,191.1816,342.22763)"
       id="g19359">
      <path
         style="fill:#e9e9e9;fill-rule:nonzero;stroke:none"
         d="M 0,0 H 0.594 V -1.748 H 1.45 V -2.35 H 0 Z"
         id="path19361"
         inkscape:connector-curvature="0" />
    </g>
    <g
       transform="matrix(13.05826,0,0,-13.05826,212.04348,342.22763)"
       id="g19363">
      <path
         style="fill:#e9e9e9;fill-rule:nonzero;stroke:none"
         d="M 0,0 H 1.598 V -0.602 H 0.595 V -0.896 H 1.507 V -1.454 H 0.595 V -1.748 H 1.628 V -2.35 H 0 Z"
         id="path19365"
         inkscape:connector-curvature="0" />
    </g>
    <g
       transform="matrix(13.05826,0,0,-13.05826,251.58128,372.91063)"
       id="g19367">
      <path
         style="fill:#e9e9e9;fill-rule:nonzero;stroke:none"
         d="m 0,0 h -0.665 l -0.577,2.35 h 0.601 l 0.317,-1.425 h 0.004 l 0.313,1.425 h 0.61 z"
         id="path19369"
         inkscape:connector-curvature="0" />
    </g>
    <path
       style="fill:#e9e9e9;fill-rule:nonzero;stroke:none"
       d="m 262.37393,342.23286 h 7.7827 v 30.68691 h -7.7827 z"
       id="path19371"
       inkscape:connector-curvature="0" />
    <g
       transform="matrix(13.05826,0,0,-13.05826,280.95453,362.58938)"
       id="g19373">
      <path
         style="fill:#e9e9e9;fill-rule:nonzero;stroke:none"
         d="m 0,0 c 0,-0.059 0.008,-0.112 0.022,-0.155 0.043,-0.141 0.173,-0.171 0.284,-0.171 0.097,0 0.246,0.039 0.246,0.214 0,0.121 -0.085,0.154 -0.417,0.269 -0.305,0.106 -0.655,0.208 -0.655,0.682 0,0.542 0.382,0.776 0.78,0.776 0.419,0 0.789,-0.194 0.805,-0.767 H 0.503 C 0.514,0.937 0.481,0.996 0.432,1.037 0.384,1.078 0.316,1.095 0.257,1.095 0.176,1.095 0.043,1.069 0.043,0.937 0.054,0.77 0.33,0.734 0.603,0.641 0.877,0.549 1.147,0.394 1.147,-0.036 c 0,-0.613 -0.463,-0.81 -0.892,-0.81 -0.22,0 -0.845,0.096 -0.85,0.846 z"
         id="path19375"
         inkscape:connector-curvature="0" />
    </g>
    <path
       style="fill:#e9e9e9;fill-rule:nonzero;stroke:none"
       d="m 298.42783,342.23286 h 7.7696 v 30.68691 h -7.7696 z"
       id="path19377"
       inkscape:connector-curvature="0" />
    <g
       transform="matrix(13.05826,0,0,-13.05826,321.62583,341.49898)"
       id="g19379">
      <path
         style="fill:#e9e9e9;fill-rule:nonzero;stroke:none"
         d="m 0,0 c 0.588,0 0.98,-0.514 0.98,-1.231 0,-0.717 -0.392,-1.23 -0.98,-1.23 -0.586,0 -0.979,0.513 -0.979,1.23 C -0.979,-0.514 -0.586,0 0,0 m 0,-1.876 c 0.152,0 0.385,0.122 0.385,0.645 0,0.523 -0.233,0.646 -0.385,0.646 -0.151,0 -0.384,-0.123 -0.384,-0.646 0,-0.523 0.233,-0.645 0.384,-0.645"
         id="path19381"
         inkscape:connector-curvature="0" />
    </g>
    <g
       transform="matrix(13.05826,0,0,-13.05826,337.31003,342.22763)"
       id="g19383">
      <path
         style="fill:#e9e9e9;fill-rule:nonzero;stroke:none"
         d="M 0,0 H 0.609 L 1.171,-1.257 H 1.177 V 0 H 1.739 V -2.35 H 1.161 L 0.568,-1.067 H 0.563 V -2.35 H 0 Z"
         id="path19385"
         inkscape:connector-curvature="0" />
    </g>
    <g
       transform="matrix(13.05826,0,0,-13.05826,430.22093,84.6626)"
       id="g19391">
      <path
         style="fill:#e9e9e9;fill-rule:nonzero;stroke:none"
         d="m 0,0 c -0.246,0.168 -0.687,0.252 -1.123,0.214 -0.415,-0.035 -0.691,-0.238 -0.918,-0.426 0.003,0.002 -0.591,-0.586 -0.591,-0.586 l -0.159,-0.254 c -0.002,-0.003 -0.53,-0.663 -0.53,-0.663 0,0 -0.005,-0.006 -0.006,-0.007 v 3.66 l -1.62,0.974 0.001,-6.648 -0.021,-0.032 -0.388,-0.456 v 7.136 h -10.014 l -3.562,-3.544 -3.164,3.544 h -9.877 V -19.06 h 10.045 v 9.679 l 2.957,-3.05 3.631,3.095 v -9.724 h 9.986 l -0.001,9.272 c 0.078,0.133 0.142,0.239 0.142,0.239 10e-4,0.003 0.085,0.124 0.085,0.124 0.005,0.006 0.09,0.142 0.183,0.29 l 0.001,-9.925 1.616,1.116 v 11.707 c 0.071,0.106 0.177,0.264 0.177,0.264 0.015,0.025 0.249,0.375 0.249,0.375 0,10e-4 0.372,0.547 0.372,0.547 0.004,0.009 0.142,0.184 0.142,0.184 l 0.344,0.487 c 0.068,0.157 0.262,0.261 0.336,0.3 l 0.035,0.019 0.047,0.034 0.179,0.181 c 0.003,0.004 0.311,0.264 0.311,0.264 l 0.526,0.245 0.491,0.27 c 0.002,0.001 0.45,0.553 0.45,0.553 l 0.239,0.742 c 0.001,0.001 0.07,0.719 0.07,0.719 C 0.626,-0.688 0.35,-0.236 0,0 m -12.033,-5.976 c 0.011,-0.07 0.049,-0.72 0.047,-0.827 -0.002,-0.322 0.02,-0.677 0.01,-0.82 -0.008,-0.109 0.007,-0.485 0.007,-0.485 0.027,-0.297 0.091,-0.622 0.097,-0.68 0.013,-0.152 -0.044,-0.729 -0.027,-0.86 0.002,-0.027 0.049,-0.268 0.039,-0.325 -0.026,-0.15 0.018,-0.331 0.013,-0.399 -0.008,-0.119 -0.013,-0.255 -0.017,-0.4 -0.008,-0.215 -0.015,-0.437 -0.035,-0.631 -0.006,-0.049 10e-4,-0.388 10e-4,-0.388 -0.039,-0.341 -0.081,-0.693 -0.023,-1.046 0.011,-0.071 -0.003,-0.304 0.003,-0.345 0.009,-0.053 0.084,-0.327 0.095,-0.387 0.016,-0.09 0.05,-0.507 0.095,-0.603 0.044,-0.097 0.223,-0.522 0.239,-0.573 0.053,-0.161 0.134,-0.549 0.061,-0.747 -0.069,-0.187 -0.173,-0.632 -0.246,-0.743 -0.063,-0.097 -0.158,-0.154 -0.203,-0.224 -0.043,-0.065 -0.128,-0.125 -0.199,-0.153 -0.22,-0.086 -0.61,-0.146 -0.948,-0.043 -0.137,0.041 -0.344,0.028 -0.577,0.169 -0.19,0.115 -0.255,0.43 -0.282,0.599 -0.013,0.079 0.01,0.29 0.005,0.323 -0.006,0.048 -0.078,0.36 -0.078,0.46 -0.001,0.05 0.017,0.261 -0.006,0.4 -0.029,0.179 -0.116,0.47 -0.116,0.47 -0.024,0.119 -0.088,0.377 -0.091,0.385 -0.069,0.193 -0.103,0.381 -0.123,0.541 -0.037,0.294 0.036,0.539 0.101,0.756 0.037,0.125 0.072,0.242 0.087,0.36 0.01,0.085 -0.056,0.488 -0.043,0.623 0.004,0.055 0.049,0.23 0.051,0.253 0.017,0.114 0.021,0.418 0.022,0.465 10e-4,0.061 0.042,0.317 0.037,0.582 -0.002,0.104 -0.013,0.212 0,0.321 0.013,0.116 0.023,0.412 0.001,0.549 -0.035,0.209 -0.021,0.396 -0.022,0.405 -0.015,0.219 -0.028,0.449 -0.015,0.645 0.002,0.031 -0.036,0.363 -0.037,0.466 -0.002,0.065 -0.006,0.472 -0.01,0.52 -0.087,1.013 -0.224,1.207 -0.279,1.244 -0.055,0.036 -0.204,0.034 -0.289,-0.006 -0.065,-0.03 -0.234,-0.177 -0.377,-0.254 -0.14,-0.074 -0.401,-0.198 -0.49,-0.264 -0.103,-0.078 -0.272,-0.209 -0.601,-0.389 -0.083,-0.045 -0.146,-0.122 -0.221,-0.19 -0.109,-0.096 -0.313,-0.302 -0.643,-0.469 -0.162,-0.081 -0.306,-0.176 -0.422,-0.289 -0.048,-0.048 -0.225,-0.344 -0.339,-0.455 -0.111,-0.106 -0.181,-0.255 -0.201,-0.301 -0.058,-0.124 -0.121,-0.263 -0.243,-0.354 -0.189,-0.141 -0.601,-0.167 -0.85,-0.063 -0.159,0.066 -0.476,0.279 -0.614,0.648 -0.139,0.368 -0.023,0.84 0.252,1.146 0.181,0.201 0.463,0.282 0.737,0.359 0.169,0.048 0.33,0.094 0.454,0.163 0.061,0.034 0.256,0.18 0.297,0.207 0.062,0.041 0.283,0.148 0.326,0.176 0.04,0.027 0.273,0.23 0.429,0.318 0.258,0.144 0.463,0.26 0.584,0.336 0,0 0.355,0.2 0.585,0.418 0.052,0.05 0.273,0.132 0.515,0.269 0.061,0.035 0.314,0.12 0.378,0.148 0.044,0.021 0.22,0.15 0.272,0.177 0.227,0.118 0.341,0.259 0.277,0.61 -0.023,0.122 -0.06,0.246 -0.047,0.393 0.004,0.036 0.056,0.257 0.14,0.409 0.042,0.078 0.108,0.076 0.145,0.148 0.037,0.074 0.167,0.136 0.253,0.158 0.06,0.058 0.184,0.12 0.329,0.145 0.318,0.053 0.727,-0.18 0.786,-0.192 0.112,-0.025 0.302,-0.008 0.402,0.021 0.02,0.004 0.15,0.089 0.198,0.107 0.064,0.024 0.269,0.08 0.311,0.095 0.063,0.022 0.355,0.175 0.429,0.203 0.076,0.029 0.252,0.061 0.339,0.081 0.139,0.099 0.4,0.184 0.5,0.27 0.113,0.099 0.266,0.336 0.298,0.378 0.059,0.078 0.347,0.272 0.388,0.303 0.094,0.074 0.309,0.225 0.455,0.267 0.07,0.02 0.275,-0.022 0.4,-0.021 0.14,0 0.336,-0.008 0.484,-0.232 0.074,-0.113 0.198,-0.228 0.23,-0.384 0.096,-0.487 -0.268,-0.97 -0.544,-1.142 -0.028,-0.017 -0.162,-0.056 -0.244,-0.083 -0.115,-0.038 -0.232,-0.122 -0.31,-0.143 -0.155,-0.041 -0.231,-0.149 -0.295,-0.183 -0.063,-0.033 -0.277,-0.165 -0.346,-0.203 -0.053,-0.028 -0.14,-0.152 -0.297,-0.198 -0.106,-0.032 -0.327,-0.095 -0.503,-0.25 -0.073,-0.064 -0.37,-0.125 -0.455,-0.144 -0.032,-0.008 -0.411,-0.168 -0.449,-0.39 -0.04,-0.233 -0.007,-0.295 -0.051,-0.629 -0.027,-0.208 -0.013,-0.453 0.004,-0.582 M 0.314,-1.718 C 0.285,-1.854 0.209,-2.19 0.101,-2.387 0.054,-2.474 -0.133,-2.75 -0.275,-2.856 -0.413,-2.958 -0.613,-3.059 -0.697,-3.089 -0.775,-3.117 -1.157,-3.295 -1.26,-3.35 c -0.185,-0.1 -0.284,-0.212 -0.381,-0.319 -0.05,-0.056 -0.099,-0.108 -0.158,-0.16 -0.023,-0.02 -0.362,-0.159 -0.485,-0.446 -0.075,-0.174 -0.413,-0.535 -0.47,-0.639 -0.084,-0.15 -0.208,-0.376 -0.332,-0.497 -0.037,-0.036 -0.077,-0.091 -0.119,-0.155 -0.039,-0.058 -0.079,-0.123 -0.122,-0.194 -0.012,-0.019 -0.022,-0.035 -0.034,-0.054 -0.08,-0.132 -0.17,-0.282 -0.222,-0.337 -0.129,-0.139 -0.204,-0.319 -0.265,-0.466 -0.024,-0.057 -0.236,-0.36 -0.316,-0.571 -0.035,-0.095 -0.219,-0.403 -0.239,-0.45 -0.039,-0.099 -0.276,-0.329 -0.299,-0.374 -0.034,-0.069 -0.065,-0.163 -0.097,-0.261 -0.028,-0.089 -0.101,-0.264 -0.126,-0.332 -0.031,-0.051 -0.071,-0.116 -0.113,-0.185 -0.002,-0.003 -0.003,-0.005 -0.005,-0.007 -0.031,-0.051 -0.062,-0.102 -0.095,-0.155 -0.074,-0.12 -0.149,-0.238 -0.198,-0.314 -0.033,-0.042 -0.066,-0.091 -0.095,-0.135 -0.047,-0.069 -0.391,-0.656 -0.47,-0.796 -0.035,-0.064 -0.078,-0.128 -0.122,-0.195 -0.105,-0.157 -0.213,-0.318 -0.265,-0.517 -0.033,-0.124 -0.128,-0.329 -0.135,-0.347 -0.135,-0.332 -0.187,-0.689 -0.201,-0.79 -0.021,-0.165 -0.016,-0.332 -0.009,-0.492 0.007,-0.173 0.013,-0.337 -0.015,-0.482 -0.052,-0.269 -0.157,-0.534 -0.296,-0.746 -0.037,-0.058 -0.168,-0.237 -0.323,-0.381 -0.113,-0.105 -0.298,-0.148 -0.637,-0.151 -0.459,-0.002 -0.656,0.168 -0.9,0.527 -0.04,0.058 -0.118,0.209 -0.213,0.412 -0.122,0.259 -0.222,0.496 -0.309,0.808 -0.027,0.094 -0.065,0.198 -0.1,0.299 -0.04,0.11 -0.126,0.42 -0.133,0.471 -0.008,0.051 -0.116,0.412 -0.123,0.447 -0.042,0.221 -0.1,0.426 -0.157,0.624 -0.058,0.204 -0.113,0.397 -0.147,0.596 -0.033,0.191 -0.135,0.5 -0.21,0.724 0,0 -0.144,0.457 -0.19,0.62 -0.063,0.221 -0.269,0.831 -0.269,0.831 -0.077,0.208 -0.259,0.696 -0.272,0.774 -0.108,0.634 -0.107,1.145 0.007,1.368 0.051,0.102 0.226,0.199 0.367,0.277 0.047,0.027 0.279,0.177 0.329,0.19 0.144,0.039 0.385,0.051 0.588,0.03 0.027,-0.003 0.276,-0.005 0.366,-0.069 0.335,-0.233 0.359,-0.534 0.403,-1.081 0,0 0.058,-0.588 0.086,-0.809 0.02,-0.163 0.042,-0.332 0.059,-0.499 0.011,-0.115 0.017,-0.241 0.022,-0.362 0.009,-0.219 0.084,-0.637 0.084,-0.637 0.075,-0.251 0.147,-0.49 0.441,-0.614 0.08,-0.033 0.171,-0.027 0.257,0.021 0.201,0.107 0.384,0.433 0.454,0.809 0.004,0.021 0.034,0.064 0.063,0.106 0.07,0.097 0.165,0.231 0.214,0.451 0.015,0.055 0.15,0.241 0.23,0.352 0.082,0.113 0.158,0.219 0.203,0.299 0.015,0.027 0.349,0.548 0.349,0.548 0,0 0.129,0.287 0.184,0.394 0.055,0.109 0.103,0.239 0.108,0.261 0.027,0.112 0.082,0.347 0.192,0.477 0.15,0.177 0.313,0.575 0.321,0.592 0.036,0.068 0.134,0.237 0.225,0.386 0.005,0.006 0.014,0.019 0.02,0.027 v 10e-4 c 0.002,0.002 0.005,0.006 0.007,0.008 0.04,0.053 0.092,0.123 0.132,0.171 l 0.288,0.341 c 0.059,0.064 0.118,0.13 0.171,0.202 0.056,0.074 0.175,0.249 0.28,0.404 0.064,0.097 0.249,0.338 0.306,0.398 0.056,0.058 0.476,0.623 0.541,0.709 0.027,0.035 0.199,0.21 0.303,0.315 0,0.001 10e-4,0.001 10e-4,0.002 0.144,0.145 0.197,0.198 0.216,0.223 0.084,0.113 0.175,0.223 0.263,0.33 0.088,0.107 0.178,0.216 0.264,0.331 0.038,0.048 0.135,0.222 0.161,0.256 0.091,0.12 0.536,0.531 0.549,0.542 0.207,0.171 0.436,0.338 0.772,0.367 0.368,0.032 0.76,-0.038 0.954,-0.17 C 0.131,-0.405 0.366,-0.785 0.378,-1.064 0.39,-1.332 0.37,-1.441 0.314,-1.718"
         id="path19393"
         inkscape:connector-curvature="0" />
    </g>
  </g>
</svg>
